<?xml version="1.0" encoding="utf-8"?>
<!-- Generator: Adobe Illustrator 24.0.0, SVG Export Plug-In . SVG Version: 6.00 Build 0)  -->
<svg version="1.1" id="Capa_1" xmlns="http://www.w3.org/2000/svg" xmlns:xlink="http://www.w3.org/1999/xlink" x="0px" y="0px"
	 viewBox="0 0 841.9 595.3" style="enable-background:new 0 0 841.9 595.3;" xml:space="preserve">
<style type="text/css">
	.st0{fill:#FF1A4A;}
</style>
<g>
	<path class="st0" d="M116.7,203.5c-9.3,0-16.8,7.2-16.8,16.2c0,8.9,7.5,16.2,16.8,16.2c9.3,0,16.8-7.2,16.8-16.2
		C133.5,210.7,126,203.5,116.7,203.5z M116.8,228c-4.1,0-7.6-3.1-8-7.2h16C124.4,224.8,121,228,116.8,228z"/>
	<path class="st0" d="M70.2,325.7H41.7V224.5c0-6.8-1.7-12-5-15.5c-3.3-3.6-7.7-5.4-13-5.4c-5.3,0-9.6,1.9-12.9,5.5
		c-3.2,3.6-4.8,8.7-4.8,15.4v110.6c0,7.1,1.7,12.5,5.1,15.9c3.4,3.4,8.8,5.2,16,5.2h43.1c5.6,0,9.9-1.4,13-4.1
		c3.2-2.8,4.8-6.6,4.8-11c0-4.4-1.6-8.1-4.9-11.1C80.1,327.2,75.7,325.7,70.2,325.7z"/>
	<path class="st0" d="M116.3,243.3c-4.9,0-8.9,1.7-12,5.1c-3,3.3-4.5,8.1-4.5,14.2v90.1c0,1.8,1.5,3.3,3.3,3.3h26.7
		c1.8,0,3.3-1.5,3.3-3.3v-90.9c0-5.6-1.6-10.1-4.7-13.4C125.1,245,121.1,243.3,116.3,243.3z"/>
	<path class="st0" d="M249,262.8c-3-6.2-7.7-11.1-13.8-14.5c-6-3.3-12.9-5-20.5-5c-7.7,0-14.7,1.6-20.8,4.7c-3.9,2-7.6,4.8-11.1,8.3
		c-0.3-1.7-0.9-3.2-1.6-4.6c-1.4-2.8-3.4-4.9-5.8-6.3c-2.4-1.4-5.1-2.1-8-2.1c-4.8,0-8.7,1.6-11.6,4.9c-2.8,3.1-4.2,7.7-4.2,13.6
		v77.3c0,6,1.5,10.8,4.5,14.2c3.1,3.5,7.1,5.3,12,5.3c4.9,0,9-1.7,12.2-5.1c3.1-3.3,4.6-8.2,4.6-14.4v-33.5c0-13.1,1-18.8,1.8-21.2
		c1.6-4.4,4.1-7.7,7.5-10.2c3.4-2.4,7-3.6,11.1-3.6c6,0,9.9,1.7,11.7,5.2c2.2,4.2,3.3,10.5,3.3,18.7v44.6c0,6,1.5,10.8,4.5,14.2
		c3.1,3.5,7.2,5.3,12.2,5.3c4.9,0,8.9-1.8,12-5.2c3-3.4,4.5-8.2,4.5-14.3v-49.8c0-6-0.3-11-0.8-14.9
		C252.1,270.2,250.8,266.3,249,262.8z"/>
	<path class="st0" d="M493,259.4c-5-5.1-11.1-9.2-18.1-11.9c-7-2.8-14.8-4.1-23.2-4.1c-8.3,0-16.1,1.4-23,4.1
		c-7,2.7-13.1,6.7-18,11.8c-4.9,5.1-8.8,11.3-11.4,18.4c-2.6,7.1-3.9,14.9-3.9,23.4c0,8.4,1.3,16.2,3.9,23.1
		c2.6,7,6.5,13.2,11.5,18.4c5,5.2,11.1,9.2,17.9,12c6.8,2.8,14.6,4.2,23.1,4.2c8.5,0,16.4-1.4,23.2-4.1c6.9-2.7,13-6.7,18-11.9
		c5-5.1,8.9-11.4,11.5-18.5c2.6-7.1,3.9-14.9,3.9-23.2c0-8.4-1.3-16.2-3.9-23.2C501.9,270.7,498,264.6,493,259.4z M468.4,324.3
		c-4.2,5.3-9.7,7.9-16.8,7.9c-4.7,0-8.7-1.2-12.1-3.6c-3.4-2.4-6.1-5.9-8-10.5c-2-4.8-2.9-10.6-2.9-17.1c0-6.6,1-12.4,3-17.3
		c1.9-4.7,4.6-8.2,8-10.5c3.5-2.4,7.4-3.5,12-3.5c7.1,0,12.6,2.6,16.8,7.9c4.3,5.5,6.5,13.3,6.5,23.4
		C474.9,311,472.7,318.8,468.4,324.3z"/>
	<path class="st0" d="M618.9,227.8c1.5-3,2.2-6,2.2-9.1c0-4-1.6-7.6-4.7-10.6c-3.1-3-6.9-4.5-11.5-4.5c-2.9,0-5.4,0.6-7.5,1.6
		c-2,1-3.8,2.6-5.5,4.5c-1.4,1.7-2.8,3.6-4,5.5L584,222L559.7,261L535.6,222c-4.3-7-7.4-11.5-9.6-14c-2.7-3-6.6-4.4-11.5-4.4
		c-4.6,0-8.6,1.5-11.8,4.5c-3.3,3-4.9,6.8-4.9,11c0,2.5,0.7,5.3,2.2,8.5c1.3,2.9,3.6,6.8,6.7,11.9l34.5,53.6v44.6
		c0,6.8,1.6,12.1,4.9,15.6c3.3,3.6,7.7,5.4,12.9,5.4c5.2,0,9.5-1.8,12.9-5.5c3.3-3.6,5-8.8,5-15.6V293l35.4-54.3
		C615.5,234.1,617.6,230.5,618.9,227.8z"/>
	<path class="st0" d="M717.8,307.5c5-2.6,7.6-8,7.6-16c0-7.8-2-15.5-6-22.9c-4-7.5-10.1-13.7-18-18.4c-8-4.7-17.6-7.1-28.6-7.1
		c-8.4,0-16.2,1.4-23.1,4.1c-7,2.8-13,6.8-17.9,11.9c-4.8,5.1-8.5,11.4-11,18.5c-2.5,7.1-3.7,14.8-3.7,23.1
		c0,17.6,5.1,31.8,15.2,42.2c10.1,10.4,24.4,15.7,42.4,15.7c7.8,0,14.9-1,21-3.1c6.1-2.1,11.3-4.7,15.4-7.9
		c4.1-3.2,7.3-6.7,9.4-10.2c2.2-3.8,3.3-7.1,3.3-10.1c0-3.7-1.2-6.7-3.7-8.8c-2.3-2-5.3-3.1-8.8-3.1c-3.3,0-6,0.9-8.1,2.7
		c-3.3,3.1-6,5.6-8,7.4c-2,1.7-4.1,3.3-6.5,4.9c-2.2,1.4-4.5,2.5-6.8,3.1c-2.3,0.7-5,1-7.9,1c-4.2,0-7.9-1-11.4-3.1
		c-3.4-2-6.1-5-8.3-9.2c-1.7-3.3-2.8-7.1-3.1-11.3h48.9C707.7,310.8,713.5,309.7,717.8,307.5z M651.5,289.1
		c1.1-6.5,3.3-11.5,6.4-14.9c3.7-3.9,8.2-5.9,14-5.9c6.1,0,10.8,1.9,14.5,5.8c3.2,3.4,5.2,8.4,6.1,15H651.5z"/>
	<path class="st0" d="M830,341.2c4-5.8,6-12.8,6-20.8c0-5.6-1.6-10.6-4.7-15c-3-4.2-7.4-7.9-13.1-10.9c-5.5-2.9-12.6-5.5-21.1-7.5
		c-6.9-1.7-12.4-3.1-16.3-4.3c-3.6-1.1-6.4-2.4-8.4-3.9c-1.5-1.2-2.2-2.5-2.2-4.3c0-1.2,0.3-3,3.3-4.9c2.6-1.7,6.1-2.6,10.3-2.6
		c4.1,0,7.3,0.6,9.5,1.9c2.4,1.3,4.4,3.2,6.2,5.5c2.7,3.4,5,5.8,7.1,7.6c2.5,2,5.6,3.1,9.1,3.1c4.6,0,8.4-1.3,11-3.8
		c2.7-2.6,4.1-5.9,4.1-9.9c0-3.4-1.2-7-3.4-10.4c-2.2-3.3-5.3-6.3-9.4-9c-4-2.6-8.9-4.7-14.8-6.2c-5.8-1.5-12.3-2.3-19.5-2.3
		c-9.3,0-17.3,1.5-23.9,4.6c-6.8,3.1-12,7.3-15.5,12.6c-3.6,5.3-5.4,11-5.4,17c0,6.8,2,12.6,6,17.3c3.8,4.5,8.8,8.1,15.1,10.8
		c5.9,2.6,13.7,5.1,23,7.4c7.8,1.9,13.4,3.8,16.7,5.8c2.6,1.6,3.8,3.9,3.8,7.5c0,0.7,0,2.9-3.7,5.5c-2.8,2-6.6,3-11.3,3
		c-5.9,0-10.6-1-13.9-3c-3.3-2.1-6.3-5.3-8.7-9.5c-1.6-2.8-3.2-5-5-6.6c-2.1-1.9-5-2.9-8.7-2.9c-4.1,0-7.5,1.4-10.3,4.1
		c-2.7,2.7-4.1,6-4.1,9.9c0,5.1,1.9,10.3,5.5,15.2c3.6,4.9,9.2,8.9,16.5,12.1c7.2,3.1,16,4.7,26,4.7c10.4,0,19.4-1.4,26.8-4.3
		C820.2,351.4,826.1,347,830,341.2z"/>
	<path class="st0" d="M411.2,378.5c-0.3-0.9-0.9-1.3-1.8-1.3c-0.8,0-1.4,0.4-1.8,1.3l-9.5,22.7c-0.1,0.3-0.2,0.6-0.2,0.8
		c0,0.5,0.2,1,0.5,1.3c0.4,0.4,0.8,0.6,1.4,0.6c0.4,0,0.7-0.1,1-0.3c0.3-0.2,0.6-0.5,0.7-0.9l1.9-4.6h11.9l1.9,4.6
		c0.1,0.4,0.4,0.7,0.7,0.9c0.3,0.2,0.7,0.3,1.1,0.3c0.5,0,1-0.2,1.4-0.6c0.4-0.4,0.6-0.8,0.6-1.3c0-0.2-0.1-0.5-0.2-0.8L411.2,378.5
		z M414.1,394.9h-9.3l4.7-11.4L414.1,394.9z"/>
	<path class="st0" d="M473.7,381.8c1.4-0.9,3-1.4,4.8-1.4c1.4,0,2.5,0.2,3.4,0.5c0.9,0.3,1.8,0.9,2.7,1.7c0.4,0.3,0.8,0.5,1.3,0.5
		c0.5,0,0.9-0.2,1.2-0.5c0.4-0.3,0.5-0.7,0.5-1.2c0-0.3-0.1-0.6-0.1-0.8c-0.1-0.2-0.3-0.5-0.6-0.7c-1.3-1-2.6-1.8-3.8-2.3
		c-1.3-0.5-2.8-0.7-4.5-0.7c-2.4,0-4.7,0.6-6.7,1.8c-2,1.2-3.6,2.9-4.8,5c-1.2,2.1-1.7,4.4-1.7,6.9c0,2.5,0.6,4.8,1.7,6.9
		c1.2,2.1,2.8,3.8,4.8,5c2,1.2,4.3,1.8,6.7,1.8c3.1,0,5.9-1,8.4-3c0.4-0.4,0.6-0.8,0.6-1.4c0-0.5-0.2-1-0.5-1.3
		c-0.3-0.3-0.7-0.5-1.2-0.5c-0.4,0-0.8,0.1-1.2,0.4c-1.9,1.5-4,2.2-6.1,2.2c-1.7,0-3.3-0.5-4.8-1.4c-1.4-0.9-2.6-2.1-3.5-3.7
		c-0.9-1.5-1.3-3.3-1.3-5.1c0-1.8,0.4-3.6,1.3-5.1C471.1,383.9,472.2,382.7,473.7,381.8z"/>
	<path class="st0" d="M545.9,378.5c-0.3-0.9-0.9-1.3-1.8-1.3c-0.8,0-1.4,0.4-1.8,1.3l-9.5,22.7c-0.1,0.3-0.2,0.6-0.2,0.8
		c0,0.5,0.2,1,0.5,1.3c0.4,0.4,0.8,0.6,1.4,0.6c0.4,0,0.7-0.1,1-0.3c0.3-0.2,0.6-0.5,0.7-0.9l1.9-4.6h11.9l1.8,4.6
		c0.1,0.4,0.4,0.7,0.7,0.9c0.3,0.2,0.7,0.3,1.1,0.3c0.5,0,1-0.2,1.4-0.6c0.4-0.4,0.6-0.8,0.6-1.3c0-0.2-0.1-0.5-0.2-0.8L545.9,378.5
		z M548.7,394.9h-9.3l4.7-11.4L548.7,394.9z"/>
	<path class="st0" d="M616.7,378.9c-2-1.1-4.3-1.7-6.9-1.7h-6.1c-0.5,0-1,0.2-1.4,0.5c-0.4,0.4-0.6,0.8-0.6,1.4V402
		c0,0.5,0.2,1,0.6,1.4c0.4,0.4,0.8,0.6,1.4,0.6h6.1c2.6,0,4.9-0.6,6.9-1.7c2-1.1,3.6-2.7,4.7-4.8c1.1-2,1.7-4.3,1.7-6.9
		c0-2.6-0.6-4.9-1.7-6.9C620.3,381.7,618.7,380.1,616.7,378.9z M609.8,400.5h-4.2v-19.8h4.2c1.8,0,3.5,0.4,4.9,1.3
		c1.4,0.8,2.6,2,3.4,3.5c0.8,1.5,1.2,3.2,1.2,5.1c0,1.9-0.4,3.6-1.2,5.1c-0.8,1.5-1.9,2.7-3.4,3.5
		C613.3,400.1,611.7,400.5,609.8,400.5z"/>
	<path class="st0" d="M688.1,380.8c0.6,0,1-0.2,1.4-0.5c0.3-0.3,0.5-0.8,0.5-1.3c0-0.5-0.2-1-0.5-1.3c-0.3-0.3-0.8-0.5-1.4-0.5
		h-15.3c-0.5,0-1,0.2-1.4,0.5c-0.4,0.4-0.6,0.8-0.6,1.4V402c0,0.5,0.2,1,0.6,1.4c0.4,0.4,0.8,0.6,1.4,0.6h15.3c0.6,0,1-0.2,1.4-0.5
		c0.3-0.3,0.5-0.8,0.5-1.3c0-0.5-0.2-0.9-0.5-1.3c-0.3-0.3-0.8-0.5-1.4-0.5h-13.4v-8.1h9.5c0.5,0,1-0.2,1.3-0.5
		c0.4-0.3,0.5-0.8,0.5-1.3c0-0.5-0.2-1-0.5-1.3c-0.4-0.3-0.8-0.5-1.3-0.5h-9.5v-7.9H688.1z"/>
	<path class="st0" d="M762.1,377.2c-0.7,0-1.3,0.3-1.7,1l-9.6,19.8l-9.9-19.8c-0.4-0.7-1-1-1.7-1c-0.5,0-1,0.2-1.4,0.6
		c-0.4,0.4-0.6,0.8-0.6,1.4V402c0,0.5,0.2,1,0.6,1.4c0.4,0.4,0.8,0.6,1.4,0.6c0.5,0,1-0.2,1.4-0.6c0.4-0.4,0.6-0.8,0.6-1.4v-15.8
		l7.8,15.6c0.4,0.8,1,1.1,1.8,1.1c0.7,0,1.2-0.3,1.7-1l7.9-16V402c0,0.5,0.2,1,0.6,1.4c0.4,0.4,0.8,0.6,1.4,0.6c0.5,0,1-0.2,1.3-0.6
		c0.4-0.4,0.6-0.8,0.6-1.4v-22.9c0-0.5-0.2-1-0.6-1.4C763.1,377.4,762.6,377.2,762.1,377.2z"/>
	<path class="st0" d="M830.9,377.2c-0.7,0-1.3,0.3-1.7,0.9l-7.9,12.5l-7.8-12.3c-0.2-0.4-0.5-0.6-0.7-0.8c-0.3-0.2-0.6-0.3-1-0.3
		c-0.5,0-1,0.2-1.3,0.5c-0.4,0.3-0.6,0.8-0.6,1.3c0,0.4,0.1,0.8,0.4,1.2l9,14v7.8c0,0.5,0.2,1,0.6,1.4c0.4,0.4,0.8,0.6,1.3,0.6
		c0.5,0,1-0.2,1.4-0.6c0.4-0.4,0.6-0.8,0.6-1.4v-7.8l9.1-14c0.2-0.4,0.4-0.8,0.4-1.2c0-0.5-0.2-0.9-0.5-1.3
		C831.7,377.4,831.3,377.2,830.9,377.2z"/>
	<path class="st0" d="M164.3,190.9c0-6.2-9.2-11.3-20.5-11.3c-11.3,0-20.5,5-20.5,11.3c0,4.8,5.4,8.9,13.1,10.5v6.2l11.5-5.7
		C157.2,200.9,164.3,196.4,164.3,190.9z"/>
	<path class="st0" d="M381.5,286.3c0-1.6,0-3.4,0.1-5.5c0.3-11.4,0.6-28.5-4.9-33.7c-4.7-4.4-12.1-4.8-17.4-1
		c-4.1,3-4.7,6.3-5.2,9.5c-0.3,1.6-0.6,3.2-1.3,4.8c-1.2-0.9-2.5-2-3.8-3c-10.2-8.4-25.6-21.1-52.1-9.7c-17.6,7.6-28.1,27-28.1,51.9
		c-0.1,43.4,25,54.4,35.7,57.2c18.2,4.6,38.8-1.9,46.8-14.7c-0.1,13-3.1,22-9.2,27.5c-10.3,9.2-28.8,6.8-45.1,4.6
		c-1-0.1-2.9-0.7-4.8-1.3c-2.6-0.8-5.2-1.6-6.6-1.6c-0.1,0-0.2,0-0.3,0c-9.2,0-14.3,4.4-15,13.2c-0.3,3.8,0.8,7.1,3.4,9.9
		c7.8,8.3,26.9,10.2,43,10.2c1.4,0,2.8,0,4.1,0c16.3-0.3,31.9-3.7,40.5-8.7c8.2-4.8,14.4-13.5,17.5-24.4c4-14,3.3-44.8,2.8-67.2
		C381.7,297.5,381.5,291.2,381.5,286.3z M352.4,309.2c-1.9,12.3-8.3,21.4-17.6,25c-14.7,5.6-27.1-0.1-33.2-15.3
		c-7.2-18-2.9-44.1,13.4-50.8c3.9-1.6,7.7-2.4,11.3-2.4c5,0,9.6,1.6,13.6,4.7C349.5,277.9,354.7,293.8,352.4,309.2z"/>
</g>
</svg>
